<?xml version="1.0" encoding="utf-8"?>
<!-- Generator: Adobe Illustrator 16.0.0, SVG Export Plug-In . SVG Version: 6.00 Build 0)  -->
<!DOCTYPE svg PUBLIC "-//W3C//DTD SVG 1.1//EN" "http://www.w3.org/Graphics/SVG/1.1/DTD/svg11.dtd">
<svg version="1.1" xmlns="http://www.w3.org/2000/svg" xmlns:xlink="http://www.w3.org/1999/xlink" x="0px" y="0px"
	 width="2834.65px" height="1133.86px" viewBox="0 0 2834.65 1133.86" enable-background="new 0 0 2834.65 1133.86"
	 xml:space="preserve">
<g id="Layer_2" display="none">
	
		<rect x="376.051" y="83.795" display="inline" fill="none" stroke="#231F20" stroke-miterlimit="10" width="1700.788" height="850.394"/>
</g>
<g id="Layer_1">
	<circle fill="none" stroke="#00FF00" stroke-width="0.25" cx="637.268" cy="320.633" r="175.748"/>
	<circle fill="none" stroke="#00FF00" stroke-width="0.25" cx="1817.978" cy="320.633" r="163.701"/>
	<polygon fill="none" stroke="#0000FF" stroke-width="0.25" points="1040.065,381.835 1040.065,360.692 1033.018,360.692 
		1033.018,357.168 1050.637,357.168 1050.637,360.692 1043.59,360.692 1043.59,381.835 	"/>
	<polygon fill="none" stroke="#0000FF" stroke-width="0.25" points="1052.752,381.835 1052.752,357.168 1056.276,357.168 
		1056.276,367.74 1059.799,367.74 1059.799,371.264 1056.276,371.264 1056.276,381.835 	"/>
	<rect x="1059.799" y="364.216" fill="none" stroke="#0000FF" stroke-width="0.25" width="7.049" height="3.524"/>
	<rect x="1066.848" y="367.74" fill="none" stroke="#0000FF" stroke-width="0.25" width="3.523" height="14.096"/>
	<polygon fill="none" stroke="#0000FF" stroke-width="0.25" points="1072.485,378.312 1072.485,367.74 1076.01,367.74 
		1076.01,371.264 1086.581,371.264 1086.581,367.74 1090.105,367.74 1090.105,374.788 1076.01,374.788 1076.01,378.312 	"/>
	<rect x="1076.01" y="364.216" fill="none" stroke="#0000FF" stroke-width="0.25" width="10.571" height="3.524"/>
	<rect x="1076.01" y="378.312" fill="none" stroke="#0000FF" stroke-width="0.25" width="14.096" height="3.524"/>
	<polygon fill="none" stroke="#0000FF" stroke-width="0.25" points="1108.815,381.835 1108.815,357.168 1112.339,357.168 
		1112.339,360.692 1115.863,360.692 1115.863,364.216 1112.339,364.216 1112.339,381.835 	"/>
	<rect x="1115.863" y="364.216" fill="none" stroke="#0000FF" stroke-width="0.25" width="3.523" height="3.524"/>
	<polygon fill="none" stroke="#0000FF" stroke-width="0.25" points="1122.91,381.835 1122.91,364.216 1119.387,364.216 
		1119.387,360.692 1122.91,360.692 1122.91,357.168 1126.435,357.168 1126.435,381.835 	"/>
	<rect x="1128.549" y="357.168" fill="none" stroke="#0000FF" stroke-width="0.25" width="3.524" height="3.524"/>
	<rect x="1128.549" y="364.216" fill="none" stroke="#0000FF" stroke-width="0.25" width="3.524" height="17.62"/>
	<polygon fill="none" stroke="#0000FF" stroke-width="0.25" points="1134.188,381.835 1134.188,364.216 1148.283,364.216 
		1148.283,367.74 1137.712,367.74 1137.712,381.835 	"/>
	<rect x="1148.283" y="367.74" fill="none" stroke="#0000FF" stroke-width="0.25" width="3.523" height="14.096"/>
	<polygon fill="none" stroke="#0000FF" stroke-width="0.25" points="1153.921,378.312 1153.921,367.74 1157.445,367.74 
		1157.445,371.264 1168.017,371.264 1168.017,367.74 1171.54,367.74 1171.54,374.788 1157.445,374.788 1157.445,378.312 	"/>
	<rect x="1157.445" y="364.216" fill="none" stroke="#0000FF" stroke-width="0.25" width="10.571" height="3.524"/>
	<rect x="1157.445" y="378.312" fill="none" stroke="#0000FF" stroke-width="0.25" width="14.095" height="3.524"/>
	<rect x="1173.655" y="367.74" fill="none" stroke="#0000FF" stroke-width="0.25" width="3.524" height="10.572"/>
	<rect x="1177.18" y="364.216" fill="none" stroke="#0000FF" stroke-width="0.25" width="10.571" height="3.524"/>
	<rect x="1177.18" y="378.312" fill="none" stroke="#0000FF" stroke-width="0.25" width="10.571" height="3.524"/>
	<rect x="1187.751" y="367.74" fill="none" stroke="#0000FF" stroke-width="0.25" width="3.523" height="3.524"/>
	<rect x="1187.751" y="374.788" fill="none" stroke="#0000FF" stroke-width="0.25" width="3.523" height="3.524"/>
	<polygon fill="none" stroke="#0000FF" stroke-width="0.25" points="1193.389,381.835 1193.389,364.216 1196.913,364.216 
		1196.913,367.74 1200.437,367.74 1200.437,371.264 1196.913,371.264 1196.913,381.835 	"/>
	<rect x="1200.437" y="364.216" fill="none" stroke="#0000FF" stroke-width="0.25" width="7.048" height="3.524"/>
	<rect x="1207.484" y="367.74" fill="none" stroke="#0000FF" stroke-width="0.25" width="3.524" height="3.524"/>
	<rect x="1213.123" y="374.788" fill="none" stroke="#0000FF" stroke-width="0.25" width="3.524" height="3.524"/>
	<rect x="1216.647" y="364.216" fill="none" stroke="#0000FF" stroke-width="0.25" width="10.571" height="3.524"/>
	<polygon fill="none" stroke="#0000FF" stroke-width="0.25" points="1216.647,381.835 1216.647,378.312 1227.219,378.312 
		1227.219,374.788 1216.647,374.788 1216.647,371.264 1227.219,371.264 1227.219,367.74 1230.743,367.74 1230.743,381.835 	"/>
	<polygon fill="none" stroke="#0000FF" stroke-width="0.25" points="1236.382,381.835 1236.382,367.74 1232.857,367.74 
		1232.857,364.216 1236.382,364.216 1236.382,360.692 1239.905,360.692 1239.905,364.216 1246.953,364.216 1246.953,367.74 
		1239.905,367.74 1239.905,381.835 	"/>
	<rect x="1239.905" y="357.168" fill="none" stroke="#0000FF" stroke-width="0.25" width="7.048" height="3.524"/>
	<polygon fill="none" stroke="#0000FF" stroke-width="0.25" points="1252.592,378.312 1252.592,367.74 1249.067,367.74 
		1249.067,364.216 1252.592,364.216 1252.592,357.168 1256.115,357.168 1256.115,364.216 1259.64,364.216 1259.64,367.74 
		1256.115,367.74 1256.115,378.312 	"/>
	<rect x="1256.115" y="378.312" fill="none" stroke="#0000FF" stroke-width="0.25" width="3.524" height="3.524"/>
	<rect x="1278.349" y="360.692" fill="none" stroke="#0000FF" stroke-width="0.25" width="3.524" height="17.619"/>
	<rect x="1281.873" y="357.168" fill="none" stroke="#0000FF" stroke-width="0.25" width="10.571" height="3.524"/>
	<rect x="1281.873" y="378.312" fill="none" stroke="#0000FF" stroke-width="0.25" width="10.571" height="3.524"/>
	<rect x="1292.444" y="360.692" fill="none" stroke="#0000FF" stroke-width="0.25" width="3.524" height="17.619"/>
	<polygon fill="none" stroke="#0000FF" stroke-width="0.25" points="1301.607,381.835 1301.607,367.74 1298.083,367.74 
		1298.083,364.216 1301.607,364.216 1301.607,360.692 1305.131,360.692 1305.131,364.216 1312.179,364.216 1312.179,367.74 
		1305.131,367.74 1305.131,381.835 	"/>
	<rect x="1305.131" y="357.168" fill="none" stroke="#0000FF" stroke-width="0.25" width="7.048" height="3.524"/>
	<polygon fill="none" stroke="#0000FF" stroke-width="0.25" points="1337.936,381.835 1337.936,360.692 1330.888,360.692 
		1330.888,357.168 1348.508,357.168 1348.508,360.692 1341.46,360.692 1341.46,381.835 	"/>
	<polygon fill="none" stroke="#0000FF" stroke-width="0.25" points="1350.622,381.835 1350.622,357.168 1354.146,357.168 
		1354.146,367.74 1357.67,367.74 1357.67,371.264 1354.146,371.264 1354.146,381.835 	"/>
	<rect x="1357.67" y="364.216" fill="none" stroke="#0000FF" stroke-width="0.25" width="7.048" height="3.524"/>
	<rect x="1364.718" y="367.74" fill="none" stroke="#0000FF" stroke-width="0.25" width="3.523" height="14.096"/>
	<rect x="1370.356" y="357.168" fill="none" stroke="#0000FF" stroke-width="0.25" width="3.523" height="3.524"/>
	<rect x="1370.356" y="364.216" fill="none" stroke="#0000FF" stroke-width="0.25" width="3.523" height="17.62"/>
	<polygon fill="none" stroke="#0000FF" stroke-width="0.25" points="1375.994,381.835 1375.994,364.216 1390.089,364.216 
		1390.089,367.74 1379.518,367.74 1379.518,381.835 	"/>
	<rect x="1390.089" y="367.74" fill="none" stroke="#0000FF" stroke-width="0.25" width="3.523" height="14.096"/>
	<rect x="1395.728" y="367.74" fill="none" stroke="#0000FF" stroke-width="0.25" width="3.524" height="7.048"/>
	<rect x="1395.728" y="381.835" fill="none" stroke="#0000FF" stroke-width="0.25" width="14.097" height="3.524"/>
	<polygon fill="none" stroke="#0000FF" stroke-width="0.25" points="1409.824,381.835 1409.824,378.312 1399.252,378.312 
		1399.252,374.788 1409.824,374.788 1409.824,367.74 1399.252,367.74 1399.252,364.216 1413.348,364.216 1413.348,381.835 	"/>
	<rect x="1415.462" y="367.74" fill="none" stroke="#0000FF" stroke-width="0.25" width="3.523" height="3.524"/>
	<rect x="1415.462" y="378.312" fill="none" stroke="#0000FF" stroke-width="0.25" width="14.097" height="3.524"/>
	<rect x="1418.985" y="364.216" fill="none" stroke="#0000FF" stroke-width="0.25" width="14.097" height="3.524"/>
	<rect x="1418.985" y="371.264" fill="none" stroke="#0000FF" stroke-width="0.25" width="10.573" height="3.524"/>
	<rect x="1429.559" y="374.788" fill="none" stroke="#0000FF" stroke-width="0.25" width="3.523" height="3.524"/>
	<rect x="1118.17" y="401.569" fill="none" stroke="#0000FF" stroke-width="0.25" width="3.524" height="10.572"/>
	<rect x="1121.694" y="398.045" fill="none" stroke="#0000FF" stroke-width="0.25" width="10.571" height="3.524"/>
	<rect x="1121.694" y="412.141" fill="none" stroke="#0000FF" stroke-width="0.25" width="10.571" height="3.524"/>
	<rect x="1132.266" y="401.569" fill="none" stroke="#0000FF" stroke-width="0.25" width="3.523" height="3.524"/>
	<rect x="1132.266" y="408.618" fill="none" stroke="#0000FF" stroke-width="0.25" width="3.523" height="3.523"/>
	<polygon fill="none" stroke="#0000FF" stroke-width="0.25" points="1137.904,412.141 1137.904,401.569 1141.429,401.569 
		1141.429,405.093 1151.999,405.093 1151.999,401.569 1155.523,401.569 1155.523,408.618 1141.429,408.618 1141.429,412.141 	"/>
	<rect x="1141.429" y="398.045" fill="none" stroke="#0000FF" stroke-width="0.25" width="10.57" height="3.524"/>
	<rect x="1141.429" y="412.141" fill="none" stroke="#0000FF" stroke-width="0.25" width="14.095" height="3.524"/>
	<rect x="1157.638" y="390.998" fill="none" stroke="#0000FF" stroke-width="0.25" width="3.524" height="21.144"/>
	<rect x="1161.162" y="412.141" fill="none" stroke="#0000FF" stroke-width="0.25" width="3.523" height="3.524"/>
	<polygon fill="none" stroke="#0000FF" stroke-width="0.25" points="1166.8,412.141 1166.8,401.569 1170.324,401.569 
		1170.324,405.093 1180.896,405.093 1180.896,401.569 1184.42,401.569 1184.42,408.618 1170.324,408.618 1170.324,412.141 	"/>
	<rect x="1170.324" y="398.045" fill="none" stroke="#0000FF" stroke-width="0.25" width="10.571" height="3.524"/>
	<rect x="1170.324" y="412.141" fill="none" stroke="#0000FF" stroke-width="0.25" width="14.096" height="3.524"/>
	<polygon fill="none" stroke="#0000FF" stroke-width="0.25" points="1186.534,415.665 1186.534,390.998 1190.058,390.998 
		1190.058,401.569 1193.582,401.569 1193.582,405.093 1190.058,405.093 1190.058,412.141 1200.63,412.141 1200.63,415.665 	"/>
	<rect x="1193.582" y="398.045" fill="none" stroke="#0000FF" stroke-width="0.25" width="7.048" height="3.524"/>
	<rect x="1200.63" y="401.569" fill="none" stroke="#0000FF" stroke-width="0.25" width="3.523" height="10.572"/>
	<polygon fill="none" stroke="#0000FF" stroke-width="0.25" points="1206.268,415.665 1206.268,398.045 1209.792,398.045 
		1209.792,401.569 1213.315,401.569 1213.315,405.093 1209.792,405.093 1209.792,415.665 	"/>
	<rect x="1213.315" y="398.045" fill="none" stroke="#0000FF" stroke-width="0.25" width="7.048" height="3.524"/>
	<rect x="1220.363" y="401.569" fill="none" stroke="#0000FF" stroke-width="0.25" width="3.524" height="3.524"/>
	<rect x="1226.002" y="408.618" fill="none" stroke="#0000FF" stroke-width="0.25" width="3.524" height="3.523"/>
	<rect x="1229.526" y="398.045" fill="none" stroke="#0000FF" stroke-width="0.25" width="10.571" height="3.524"/>
	<polygon fill="none" stroke="#0000FF" stroke-width="0.25" points="1229.526,415.665 1229.526,412.141 1240.098,412.141 
		1240.098,408.618 1229.526,408.618 1229.526,405.093 1240.098,405.093 1240.098,401.569 1243.622,401.569 1243.622,415.665 	"/>
	<polygon fill="none" stroke="#0000FF" stroke-width="0.25" points="1249.261,412.141 1249.261,401.569 1245.736,401.569 
		1245.736,398.045 1249.261,398.045 1249.261,390.998 1252.784,390.998 1252.784,398.045 1256.308,398.045 1256.308,401.569 
		1252.784,401.569 1252.784,412.141 	"/>
	<rect x="1252.784" y="412.141" fill="none" stroke="#0000FF" stroke-width="0.25" width="3.523" height="3.524"/>
	<polygon fill="none" stroke="#0000FF" stroke-width="0.25" points="1258.422,412.141 1258.422,401.569 1261.946,401.569 
		1261.946,405.093 1272.518,405.093 1272.518,401.569 1276.041,401.569 1276.041,408.618 1261.946,408.618 1261.946,412.141 	"/>
	<rect x="1261.946" y="398.045" fill="none" stroke="#0000FF" stroke-width="0.25" width="10.571" height="3.524"/>
	<rect x="1261.946" y="412.141" fill="none" stroke="#0000FF" stroke-width="0.25" width="14.095" height="3.524"/>
	<rect x="1278.156" y="401.569" fill="none" stroke="#0000FF" stroke-width="0.25" width="3.524" height="3.524"/>
	<rect x="1278.156" y="412.141" fill="none" stroke="#0000FF" stroke-width="0.25" width="14.096" height="3.524"/>
	<rect x="1281.681" y="398.045" fill="none" stroke="#0000FF" stroke-width="0.25" width="14.095" height="3.524"/>
	<rect x="1281.681" y="405.093" fill="none" stroke="#0000FF" stroke-width="0.25" width="10.571" height="3.524"/>
	<rect x="1292.252" y="408.618" fill="none" stroke="#0000FF" stroke-width="0.25" width="3.523" height="3.523"/>
	<polygon fill="none" stroke="#0000FF" stroke-width="0.25" points="1318.01,412.141 1318.01,401.569 1314.485,401.569 
		1314.485,398.045 1318.01,398.045 1318.01,390.998 1321.533,390.998 1321.533,398.045 1325.057,398.045 1325.057,401.569 
		1321.533,401.569 1321.533,412.141 	"/>
	<rect x="1321.533" y="412.141" fill="none" stroke="#0000FF" stroke-width="0.25" width="3.523" height="3.524"/>
	<polygon fill="none" stroke="#0000FF" stroke-width="0.25" points="1327.171,415.665 1327.171,390.998 1330.695,390.998 
		1330.695,401.569 1334.219,401.569 1334.219,405.093 1330.695,405.093 1330.695,415.665 	"/>
	<rect x="1334.219" y="398.045" fill="none" stroke="#0000FF" stroke-width="0.25" width="7.048" height="3.524"/>
	<rect x="1341.267" y="401.569" fill="none" stroke="#0000FF" stroke-width="0.25" width="3.524" height="14.096"/>
	<polygon fill="none" stroke="#0000FF" stroke-width="0.25" points="1346.905,412.141 1346.905,401.569 1350.43,401.569 
		1350.43,405.093 1361.001,405.093 1361.001,401.569 1364.525,401.569 1364.525,408.618 1350.43,408.618 1350.43,412.141 	"/>
	<rect x="1350.43" y="398.045" fill="none" stroke="#0000FF" stroke-width="0.25" width="10.571" height="3.524"/>
	<rect x="1350.43" y="412.141" fill="none" stroke="#0000FF" stroke-width="0.25" width="14.096" height="3.524"/>
	<polygon fill="none" stroke="#0000FF" stroke-width="0.25" points="959.561,449.495 959.561,424.827 963.085,424.827 
		963.085,445.971 977.18,445.971 977.18,449.495 	"/>
	<rect x="979.295" y="424.827" fill="none" stroke="#0000FF" stroke-width="0.25" width="3.524" height="3.524"/>
	<rect x="979.295" y="431.875" fill="none" stroke="#0000FF" stroke-width="0.25" width="3.524" height="17.619"/>
	<rect x="984.933" y="431.875" fill="none" stroke="#0000FF" stroke-width="0.25" width="3.524" height="10.572"/>
	<rect x="988.457" y="442.447" fill="none" stroke="#0000FF" stroke-width="0.25" width="3.523" height="3.523"/>
	<rect x="991.98" y="445.971" fill="none" stroke="#0000FF" stroke-width="0.25" width="3.524" height="3.524"/>
	<rect x="995.505" y="442.447" fill="none" stroke="#0000FF" stroke-width="0.25" width="3.523" height="3.523"/>
	<rect x="999.028" y="431.875" fill="none" stroke="#0000FF" stroke-width="0.25" width="3.524" height="10.572"/>
	<polygon fill="none" stroke="#0000FF" stroke-width="0.25" points="1004.667,445.971 1004.667,435.399 1008.19,435.399 
		1008.19,438.923 1018.763,438.923 1018.763,435.399 1022.286,435.399 1022.286,442.447 1008.19,442.447 1008.19,445.971 	"/>
	<rect x="1008.19" y="431.875" fill="none" stroke="#0000FF" stroke-width="0.25" width="10.572" height="3.524"/>
	<rect x="1008.19" y="445.971" fill="none" stroke="#0000FF" stroke-width="0.25" width="14.096" height="3.524"/>
	<polygon fill="none" stroke="#0000FF" stroke-width="0.25" points="1024.4,449.495 1024.4,431.875 1027.925,431.875 
		1027.925,435.399 1031.448,435.399 1031.448,438.923 1027.925,438.923 1027.925,449.495 	"/>
	<rect x="1031.448" y="431.875" fill="none" stroke="#0000FF" stroke-width="0.25" width="7.048" height="3.524"/>
	<rect x="1038.496" y="435.399" fill="none" stroke="#0000FF" stroke-width="0.25" width="3.523" height="3.523"/>
	<polygon fill="none" stroke="#0000FF" stroke-width="0.25" points="1044.135,453.019 1044.135,431.875 1047.659,431.875 
		1047.659,435.399 1051.183,435.399 1051.183,438.923 1047.659,438.923 1047.659,442.447 1058.23,442.447 1058.23,445.971 
		1047.659,445.971 1047.659,453.019 	"/>
	<rect x="1051.183" y="431.875" fill="none" stroke="#0000FF" stroke-width="0.25" width="7.048" height="3.524"/>
	<rect x="1058.23" y="435.399" fill="none" stroke="#0000FF" stroke-width="0.25" width="3.523" height="7.048"/>
	<rect x="1063.868" y="435.399" fill="none" stroke="#0000FF" stroke-width="0.25" width="3.524" height="10.571"/>
	<rect x="1067.393" y="431.875" fill="none" stroke="#0000FF" stroke-width="0.25" width="10.571" height="3.524"/>
	<rect x="1067.393" y="445.971" fill="none" stroke="#0000FF" stroke-width="0.25" width="10.571" height="3.524"/>
	<rect x="1077.964" y="435.399" fill="none" stroke="#0000FF" stroke-width="0.25" width="3.524" height="10.571"/>
	<rect x="1083.603" y="435.399" fill="none" stroke="#0000FF" stroke-width="0.25" width="3.524" height="10.571"/>
	<rect x="1087.127" y="431.875" fill="none" stroke="#0000FF" stroke-width="0.25" width="10.571" height="3.524"/>
	<rect x="1087.127" y="445.971" fill="none" stroke="#0000FF" stroke-width="0.25" width="10.571" height="3.524"/>
	<rect x="1097.698" y="435.399" fill="none" stroke="#0000FF" stroke-width="0.25" width="3.524" height="10.571"/>
	<rect x="1103.337" y="424.827" fill="none" stroke="#0000FF" stroke-width="0.25" width="3.524" height="21.144"/>
	<rect x="1106.861" y="445.971" fill="none" stroke="#0000FF" stroke-width="0.25" width="3.523" height="3.524"/>
	<rect x="1129.094" y="442.447" fill="none" stroke="#0000FF" stroke-width="0.25" width="3.524" height="3.523"/>
	<rect x="1132.618" y="431.875" fill="none" stroke="#0000FF" stroke-width="0.25" width="10.571" height="3.524"/>
	<polygon fill="none" stroke="#0000FF" stroke-width="0.25" points="1132.618,449.495 1132.618,445.971 1143.189,445.971 
		1143.189,442.447 1132.618,442.447 1132.618,438.923 1143.189,438.923 1143.189,435.399 1146.714,435.399 1146.714,449.495 	"/>
	<polygon fill="none" stroke="#0000FF" stroke-width="0.25" points="1148.828,449.495 1148.828,431.875 1162.924,431.875 
		1162.924,435.399 1152.353,435.399 1152.353,449.495 	"/>
	<rect x="1162.924" y="435.399" fill="none" stroke="#0000FF" stroke-width="0.25" width="3.524" height="14.095"/>
	<rect x="1168.562" y="435.399" fill="none" stroke="#0000FF" stroke-width="0.25" width="3.524" height="10.571"/>
	<polygon fill="none" stroke="#0000FF" stroke-width="0.25" points="1172.087,449.495 1172.087,445.971 1182.657,445.971 
		1182.657,438.923 1179.134,438.923 1179.134,435.399 1182.657,435.399 1182.657,424.827 1186.182,424.827 1186.182,449.495 	"/>
	<rect x="1172.087" y="431.875" fill="none" stroke="#0000FF" stroke-width="0.25" width="7.047" height="3.524"/>
	<polygon fill="none" stroke="#0000FF" stroke-width="0.25" points="1204.892,449.495 1204.892,424.827 1208.415,424.827 
		1208.415,428.352 1211.939,428.352 1211.939,431.875 1208.415,431.875 1208.415,449.495 	"/>
	<rect x="1211.939" y="431.875" fill="none" stroke="#0000FF" stroke-width="0.25" width="3.524" height="3.524"/>
	<polygon fill="none" stroke="#0000FF" stroke-width="0.25" points="1218.987,449.495 1218.987,431.875 1215.464,431.875 
		1215.464,428.352 1218.987,428.352 1218.987,424.827 1222.511,424.827 1222.511,449.495 	"/>
	<rect x="1224.626" y="442.447" fill="none" stroke="#0000FF" stroke-width="0.25" width="3.523" height="3.523"/>
	<rect x="1228.149" y="431.875" fill="none" stroke="#0000FF" stroke-width="0.25" width="10.572" height="3.524"/>
	<polygon fill="none" stroke="#0000FF" stroke-width="0.25" points="1228.149,449.495 1228.149,445.971 1238.722,445.971 
		1238.722,442.447 1228.149,442.447 1228.149,438.923 1238.722,438.923 1238.722,435.399 1242.245,435.399 1242.245,449.495 	"/>
	<polygon fill="none" stroke="#0000FF" stroke-width="0.25" points="1244.359,449.495 1244.359,431.875 1258.455,431.875 
		1258.455,435.399 1247.884,435.399 1247.884,449.495 	"/>
	<rect x="1258.455" y="435.399" fill="none" stroke="#0000FF" stroke-width="0.25" width="3.523" height="14.095"/>
	<rect x="1264.094" y="435.399" fill="none" stroke="#0000FF" stroke-width="0.25" width="3.524" height="10.571"/>
	<rect x="1267.618" y="431.875" fill="none" stroke="#0000FF" stroke-width="0.25" width="10.57" height="3.524"/>
	<rect x="1267.618" y="445.971" fill="none" stroke="#0000FF" stroke-width="0.25" width="10.57" height="3.524"/>
	<rect x="1278.188" y="435.399" fill="none" stroke="#0000FF" stroke-width="0.25" width="3.524" height="3.523"/>
	<rect x="1278.188" y="442.447" fill="none" stroke="#0000FF" stroke-width="0.25" width="3.524" height="3.523"/>
	<polygon fill="none" stroke="#0000FF" stroke-width="0.25" points="1283.827,449.495 1283.827,424.827 1287.352,424.827 
		1287.352,435.399 1290.875,435.399 1290.875,438.923 1287.352,438.923 1287.352,449.495 	"/>
	<rect x="1290.875" y="431.875" fill="none" stroke="#0000FF" stroke-width="0.25" width="7.048" height="3.524"/>
	<rect x="1297.923" y="435.399" fill="none" stroke="#0000FF" stroke-width="0.25" width="3.524" height="14.095"/>
	<polygon fill="none" stroke="#0000FF" stroke-width="0.25" points="1303.562,445.971 1303.562,435.399 1307.086,435.399 
		1307.086,438.923 1317.656,438.923 1317.656,435.399 1321.181,435.399 1321.181,442.447 1307.086,442.447 1307.086,445.971 	"/>
	<rect x="1307.086" y="431.875" fill="none" stroke="#0000FF" stroke-width="0.25" width="10.57" height="3.524"/>
	<rect x="1307.086" y="445.971" fill="none" stroke="#0000FF" stroke-width="0.25" width="14.095" height="3.524"/>
	<rect x="1323.296" y="435.399" fill="none" stroke="#0000FF" stroke-width="0.25" width="3.523" height="3.523"/>
	<rect x="1323.296" y="445.971" fill="none" stroke="#0000FF" stroke-width="0.25" width="14.095" height="3.524"/>
	<rect x="1326.819" y="431.875" fill="none" stroke="#0000FF" stroke-width="0.25" width="14.096" height="3.524"/>
	<rect x="1326.819" y="438.923" fill="none" stroke="#0000FF" stroke-width="0.25" width="10.571" height="3.524"/>
	<rect x="1337.391" y="442.447" fill="none" stroke="#0000FF" stroke-width="0.25" width="3.524" height="3.523"/>
	<polygon fill="none" stroke="#0000FF" stroke-width="0.25" points="1346.554,445.971 1346.554,435.399 1343.029,435.399 
		1343.029,431.875 1346.554,431.875 1346.554,424.827 1350.077,424.827 1350.077,431.875 1353.602,431.875 1353.602,435.399 
		1350.077,435.399 1350.077,445.971 	"/>
	<rect x="1350.077" y="445.971" fill="none" stroke="#0000FF" stroke-width="0.25" width="3.524" height="3.524"/>
	<polygon fill="none" stroke="#0000FF" stroke-width="0.25" points="1355.715,445.971 1355.715,435.399 1359.239,435.399 
		1359.239,438.923 1369.811,438.923 1369.811,435.399 1373.336,435.399 1373.336,442.447 1359.239,442.447 1359.239,445.971 	"/>
	<rect x="1359.239" y="431.875" fill="none" stroke="#0000FF" stroke-width="0.25" width="10.571" height="3.524"/>
	<rect x="1359.239" y="445.971" fill="none" stroke="#0000FF" stroke-width="0.25" width="14.097" height="3.524"/>
	<polygon fill="none" stroke="#0000FF" stroke-width="0.25" points="1375.449,449.495 1375.449,431.875 1378.973,431.875 
		1378.973,435.399 1382.497,435.399 1382.497,438.923 1378.973,438.923 1378.973,449.495 	"/>
	<rect x="1382.497" y="431.875" fill="none" stroke="#0000FF" stroke-width="0.25" width="7.048" height="3.524"/>
	<rect x="1389.545" y="435.399" fill="none" stroke="#0000FF" stroke-width="0.25" width="3.523" height="3.523"/>
	<polygon fill="none" stroke="#0000FF" stroke-width="0.25" points="1411.779,449.495 1411.779,424.827 1425.875,424.827 
		1425.875,428.352 1415.303,428.352 1415.303,431.875 1425.875,431.875 1425.875,435.399 1415.303,435.399 1415.303,449.495 	"/>
	<rect x="1425.875" y="428.352" fill="none" stroke="#0000FF" stroke-width="0.25" width="3.523" height="3.524"/>
	<rect x="1425.875" y="435.399" fill="none" stroke="#0000FF" stroke-width="0.25" width="3.523" height="14.095"/>
	<rect x="1431.514" y="442.447" fill="none" stroke="#0000FF" stroke-width="0.25" width="3.523" height="3.523"/>
	<rect x="1435.037" y="431.875" fill="none" stroke="#0000FF" stroke-width="0.25" width="10.572" height="3.524"/>
	<polygon fill="none" stroke="#0000FF" stroke-width="0.25" points="1435.037,449.495 1435.037,445.971 1445.609,445.971 
		1445.609,442.447 1435.037,442.447 1435.037,438.923 1445.609,438.923 1445.609,435.399 1449.133,435.399 1449.133,449.495 	"/>
	<rect x="1451.246" y="424.827" fill="none" stroke="#0000FF" stroke-width="0.25" width="3.523" height="3.524"/>
	<rect x="1451.246" y="431.875" fill="none" stroke="#0000FF" stroke-width="0.25" width="3.523" height="17.619"/>
	<rect x="1456.885" y="424.827" fill="none" stroke="#0000FF" stroke-width="0.25" width="3.523" height="21.144"/>
	<rect x="1460.408" y="445.971" fill="none" stroke="#0000FF" stroke-width="0.25" width="3.525" height="3.524"/>
	<rect x="1466.047" y="431.875" fill="none" stroke="#0000FF" stroke-width="0.25" width="3.523" height="14.095"/>
	<polygon fill="none" stroke="#0000FF" stroke-width="0.25" points="1469.57,449.495 1469.57,445.971 1473.096,445.971 
		1473.096,438.923 1476.619,438.923 1476.619,445.971 1480.143,445.971 1480.143,431.875 1483.666,431.875 1483.666,449.495 	"/>
	<rect x="1485.781" y="442.447" fill="none" stroke="#0000FF" stroke-width="0.25" width="3.521" height="3.523"/>
	<rect x="1489.303" y="431.875" fill="none" stroke="#0000FF" stroke-width="0.25" width="10.572" height="3.524"/>
	<polygon fill="none" stroke="#0000FF" stroke-width="0.25" points="1489.303,449.495 1489.303,445.971 1499.875,445.971 
		1499.875,442.447 1489.303,442.447 1489.303,438.923 1499.875,438.923 1499.875,435.399 1503.4,435.399 1503.4,449.495 	"/>
	<rect x="1505.516" y="431.875" fill="none" stroke="#0000FF" stroke-width="0.25" width="3.523" height="10.572"/>
	<rect x="1505.516" y="449.495" fill="none" stroke="#0000FF" stroke-width="0.25" width="14.096" height="3.524"/>
	<polygon fill="none" stroke="#0000FF" stroke-width="0.25" points="1519.611,449.495 1519.611,445.971 1509.039,445.971 
		1509.039,442.447 1519.611,442.447 1519.611,431.875 1523.133,431.875 1523.133,449.495 	"/>
	<g>
		<polygon fill="none" stroke="#FF0000" stroke-width="0.25" stroke-miterlimit="10" points="1831.68,691.959 2073.908,934.188 
			2076.839,934.188 2076.839,83.795 376.051,83.795 376.051,934.188 381.338,934.188 623.566,691.959 650.969,691.959 
			893.197,934.188 1562.048,934.188 1804.277,691.959 		"/>
	</g>
	<path fill="none" stroke="#00FF00" stroke-width="0.25" d="M765.896,712.979v-99.237h74.428v55.821h-9.304v6.201h9.304v37.215
		h-31.012v-37.215h-12.404v37.215H765.896z M809.312,650.955v-12.404h-12.404v12.404H809.312z"/>
	<path fill="none" stroke="#00FF00" stroke-width="0.25" d="M849.627,712.979v-99.237h74.427v24.81h-43.416v12.404h43.416v24.809
		h-43.416v37.215H849.627z"/>
	<path fill="none" stroke="#00FF00" stroke-width="0.25" d="M933.357,669.562v-9.305h27.91v9.305H933.357z"/>
	<path fill="none" stroke="#00FF00" stroke-width="0.25" d="M970.571,712.979v-99.237h74.427v55.821h-9.303v6.201h9.303v37.215
		h-31.011v-37.215h-12.405v37.215H970.571z M1013.987,650.955v-12.404h-12.405v12.404H1013.987z"/>
	<polygon fill="none" stroke="#00FF00" stroke-width="0.25" points="1054.302,712.979 1054.302,613.741 1128.729,613.741 
		1128.729,712.979 1097.718,712.979 1097.718,685.068 1085.313,685.068 1085.313,712.979 	"/>
	<path fill="none" stroke="#00FF00" stroke-width="0.25" d="M1138.033,712.979v-99.237h31.011v99.237H1138.033z"/>
	<path fill="none" stroke="#00FF00" stroke-width="0.25" d="M1178.348,712.979v-99.237h31.012v74.427h43.416v24.811H1178.348z"/>
	<path fill="none" stroke="#00FF00" stroke-width="0.25" d="M1262.079,669.562v-9.305h27.91v9.305H1262.079z"/>
	<path fill="none" stroke="#00FF00" stroke-width="0.25" d="M1299.293,712.979v-99.237h80.63v24.81h-49.619v49.617h49.619v24.811
		H1299.293z"/>
	<path fill="none" stroke="#00FF00" stroke-width="0.25" d="M1389.226,712.979v-99.237h74.428v55.821h-9.304v6.201h9.304v37.215
		h-31.012v-37.215h-12.404v37.215H1389.226z M1432.642,650.955v-12.404h-12.404v12.404H1432.642z"/>
	<path fill="none" stroke="#00FF00" stroke-width="0.25" d="M1472.956,712.979v-99.237h74.428v99.237h-31.012v-27.91h-12.404v27.91
		H1472.956z M1516.372,663.359v-27.91h-12.404v27.91H1516.372z"/>
	<path fill="none" stroke="#00FF00" stroke-width="0.25" d="M1556.687,712.979v-99.237h74.428v24.81h-43.416v12.404h43.416v24.809
		h-43.416v37.215H1556.687z"/>
	<path fill="none" stroke="#00FF00" stroke-width="0.25" d="M1662.126,712.979v-74.428h-21.707v-24.81h74.428v24.81h-21.709v74.428
		H1662.126z"/>
	<path fill="none" stroke="#00FF00" stroke-width="0.25" d="M1381.147,546.639v-44.326h14.044v5.541h5.618v5.541h5.617v-5.541h5.617
		v-5.541h14.043v44.326h-14.043v-19.393h-2.809v5.541h-11.234v-5.541h-2.81v19.393H1381.147z"/>
	<path fill="none" stroke="#00FF00" stroke-width="0.25" d="M1430.302,546.639v-44.326h14.043v44.326H1430.302z"/>
	<path fill="none" stroke="#00FF00" stroke-width="0.25" d="M1448.56,546.639v-44.326h14.043v6.926h5.618v6.926h4.212v-13.852
		h14.043v44.326h-14.043v-6.926h-5.617v-6.926h-4.213v13.852H1448.56z"/>
	<path fill="none" stroke="#00FF00" stroke-width="0.25" d="M1490.69,546.639v-44.326h33.705v11.082h-19.662v5.541h19.662v11.08
		h-19.662v5.541h19.662v11.082H1490.69z"/>
	<path fill="none" stroke="#00FF00" stroke-width="0.25" d="M1528.608,546.639v-44.326h36.514v11.082h-22.469v22.162h22.469v11.082
		H1528.608z"/>
	<path fill="none" stroke="#00FF00" stroke-width="0.25" d="M1569.337,546.639v-44.326h33.705v24.934h-4.213v2.77h4.213v16.623
		h-14.045v-16.623h-5.617v16.623H1569.337z M1588.997,518.936v-5.541h-5.617v5.541H1588.997z"/>
	<polygon fill="none" stroke="#00FF00" stroke-width="0.25" points="1607.255,546.639 1607.255,502.312 1640.96,502.312 
		1640.96,546.639 1626.917,546.639 1626.917,534.172 1621.3,534.172 1621.3,546.639 	"/>
	<path fill="none" stroke="#00FF00" stroke-width="0.25" d="M1645.173,546.639v-44.326h33.705v11.082h-19.66v5.541h19.66v11.08
		h-19.66v16.623H1645.173z"/>
	<path fill="none" stroke="#00FF00" stroke-width="0.25" d="M1692.923,546.639v-33.244h-9.83v-11.082h33.705v11.082h-9.832v33.244
		H1692.923z"/>
	<path fill="none" stroke="#00FF00" stroke-width="0.25" d="M1381.147,599.83v-44.327h39.322v44.327H1381.147z M1406.427,588.746
		v-22.161h-11.235v22.161H1406.427z"/>
	<path fill="none" stroke="#00FF00" stroke-width="0.25" d="M1424.684,599.83v-44.327h33.706v11.082h-19.662v5.541h19.662v11.081
		h-19.662v16.623H1424.684z"/>
	<path fill="none" stroke="#00FF00" stroke-width="0.25" d="M1489.286,599.83v-33.245h-9.832v-11.082h33.707v11.082h-9.832v33.245
		H1489.286z"/>
	<path fill="none" stroke="#00FF00" stroke-width="0.25" d="M1517.372,599.83v-44.327h14.045v16.623h8.428v-16.623h14.043v44.327
		h-14.043v-16.623h-8.428v16.623H1517.372z"/>
	<path fill="none" stroke="#00FF00" stroke-width="0.25" d="M1558.101,599.83v-44.327h14.045v44.327H1558.101z"/>
	<path fill="none" stroke="#00FF00" stroke-width="0.25" d="M1576.358,599.83v-44.327h14.043v6.927h5.619v6.926h4.213v-13.853
		h14.043v44.327h-14.043v-6.926h-5.619v-6.927h-4.213v13.853H1576.358z"/>
	<path fill="none" stroke="#00FF00" stroke-width="0.25" d="M1622.702,599.83v-4.156h-4.213v-36.016h4.213v-4.155h33.705v11.082
		h-23.873v22.161h12.639v-5.539h-7.021v-11.081h18.256v27.704H1622.702z"/>
	<path fill="none" stroke="#00FF00" stroke-width="0.25" d="M1660.622,599.83v-11.084h21.064v-5.539h-21.064v-27.704h35.109v11.082
		h-21.066v5.541h21.066v27.704H1660.622z"/>
	<path fill="none" stroke="#00FF00" stroke-width="0.25" d="M765.896,599.215v-95.657h72.738v53.807h-9.091v5.978h9.091v35.873
		h-30.308v-35.873h-12.123v35.873H765.896z M808.326,539.429v-11.957h-12.123v11.957H808.326z"/>
	<path fill="none" stroke="#00FF00" stroke-width="0.25" d="M847.727,599.215v-95.657h72.739v23.914h-42.431v11.957h42.431v23.913
		h-42.431v35.873H847.727z"/>
	<path fill="none" stroke="#00FF00" stroke-width="0.25" d="M929.559,557.364v-8.968h27.277v8.968H929.559z"/>
	<path fill="none" stroke="#00FF00" stroke-width="0.25" d="M965.928,599.215v-95.657h78.801v23.914h-48.492v47.829h48.492v23.914
		H965.928z"/>
	<path fill="none" stroke="#00FF00" stroke-width="0.25" d="M1053.821,599.215v-95.657h72.739v53.807h-9.092v5.978h9.092v35.873
		h-30.309v-35.873h-12.123v35.873H1053.821z M1096.252,539.429v-11.957h-12.123v11.957H1096.252z"/>
	<polygon fill="none" stroke="#00FF00" stroke-width="0.25" points="1135.652,599.215 1135.652,503.558 1208.393,503.558 
		1208.393,599.215 1178.085,599.215 1178.085,572.312 1165.961,572.312 1165.961,599.215 	"/>
	<polygon fill="none" stroke="#00FF00" stroke-width="0.25" points="1103.64,664.91 1103.64,646.975 1097.578,646.975 
		1097.578,640.994 1109.7,640.994 1109.7,629.039 1097.578,629.039 1097.578,638.027 1085.454,638.027 1085.454,629.039 
		1073.331,629.039 1073.331,640.994 1085.454,640.994 1085.454,646.975 1079.393,646.975 1079.393,664.91 1085.454,664.91 
		1085.454,658.932 1097.578,658.932 1097.578,664.91 	"/>
	<polygon fill="none" stroke="#00FF00" stroke-width="0.25" points="1184.146,555.609 1184.146,537.673 1178.085,537.673 
		1178.085,531.693 1190.207,531.693 1190.207,519.738 1178.085,519.738 1178.085,528.727 1165.961,528.727 1165.961,519.738 
		1153.838,519.738 1153.838,531.693 1165.961,531.693 1165.961,537.673 1159.899,537.673 1159.899,555.609 1165.961,555.609 
		1165.961,549.63 1178.085,549.63 1178.085,555.609 	"/>
	<path fill="none" stroke="#00FF00" stroke-width="0.25" d="M1217.484,599.215v-95.657h72.739v23.914h-42.432v11.957h42.432v23.913
		h-42.432v35.873H1217.484z"/>
	<path fill="none" stroke="#00FF00" stroke-width="0.25" d="M1320.531,599.215v-71.743h-21.216v-23.914h72.74v23.914h-21.216v71.743
		H1320.531z"/>
	<polygon fill="none" stroke="#00FF00" stroke-width="0.25" points="1629.846,526.093 1629.846,517.606 1626.979,517.606 
		1626.979,514.777 1632.714,514.777 1632.714,509.12 1626.979,509.12 1626.979,513.373 1621.242,513.373 1621.242,509.12 
		1615.506,509.12 1615.506,514.777 1621.242,514.777 1621.242,517.606 1618.374,517.606 1618.374,526.093 1621.242,526.093 
		1621.242,523.264 1626.979,523.264 1626.979,526.093 	"/>
	<path fill="none" stroke="#0000FF" stroke-width="0.25" d="M881.751,304.148v-25.172h3.597v10.788h3.596v3.596h-3.596v10.788
		H881.751z M888.943,289.765v-3.596h7.191v3.596H888.943z M896.135,304.148v-14.384h3.597v14.384H896.135z"/>
	<path fill="none" stroke="#0000FF" stroke-width="0.25" d="M905.484,300.552v-10.788h-3.596v-3.596h3.596v-7.192h3.596v7.192h3.597
		v3.596h-3.597v10.788H905.484z M909.08,304.148v-3.596h3.597v3.596H909.08z"/>
	<path fill="none" stroke="#0000FF" stroke-width="0.25" d="M918.431,300.552v-10.788h-3.597v-3.596h3.597v-7.192h3.596v7.192h3.596
		v3.596h-3.596v10.788H918.431z M922.026,304.148v-3.596h3.596v3.596H922.026z"/>
	<path fill="none" stroke="#0000FF" stroke-width="0.25" d="M927.779,307.745v-21.576h3.597v3.596h3.596v3.596h-3.596v3.596h10.787
		v3.596h-10.787v7.192H927.779z M934.972,289.765v-3.596h7.191v3.596H934.972z M942.163,296.957v-7.192h3.597v7.192H942.163z"/>
	<path fill="none" stroke="#0000FF" stroke-width="0.25" d="M947.917,289.765v-7.192h3.596v7.192H947.917z M947.917,304.148v-7.192
		h3.596v7.192H947.917z"/>
	<path fill="none" stroke="#0000FF" stroke-width="0.25" d="M953.67,304.148v-3.596h3.597v3.596H953.67z M957.267,300.552v-7.192
		h3.596v7.192H957.267z M960.862,293.36v-3.596h3.596v3.596H960.862z M964.458,289.765v-7.192h3.596v7.192H964.458z
		 M968.054,282.573v-3.596h3.597v3.596H968.054z"/>
	<path fill="none" stroke="#0000FF" stroke-width="0.25" d="M973.808,304.148v-3.596h3.597v3.596H973.808z M977.404,300.552v-7.192
		H981v7.192H977.404z M981,293.36v-3.596h3.596v3.596H981z M984.596,289.765v-7.192h3.596v7.192H984.596z M988.191,282.573v-3.596
		h3.597v3.596H988.191z"/>
	<path fill="none" stroke="#0000FF" stroke-width="0.25" d="M993.945,296.957v-7.192h3.596v7.192H993.945z M993.945,307.745v-3.596
		h14.384v3.596H993.945z M1008.329,304.148v-3.596h-10.788v-3.596h10.788v-7.192h-10.788v-3.596h14.384v17.98H1008.329z"/>
	<path fill="none" stroke="#0000FF" stroke-width="0.25" d="M1014.082,282.573v-3.596h3.597v3.596H1014.082z M1014.082,304.148
		v-17.98h3.597v17.98H1014.082z"/>
	<path fill="none" stroke="#0000FF" stroke-width="0.25" d="M1023.433,300.552v-10.788h-3.597v-3.596h3.597v-7.192h3.596v7.192
		h3.596v3.596h-3.596v10.788H1023.433z M1027.028,304.148v-3.596h3.596v3.596H1027.028z"/>
	<path fill="none" stroke="#0000FF" stroke-width="0.25" d="M1032.781,304.148v-25.172h3.597v10.788h3.596v3.596h-3.596v10.788
		H1032.781z M1039.974,289.765v-3.596h7.191v3.596H1039.974z M1047.165,304.148v-14.384h3.597v14.384H1047.165z"/>
	<path fill="none" stroke="#0000FF" stroke-width="0.25" d="M1052.919,300.552v-14.384h3.596v14.384H1052.919z M1056.515,304.148
		v-3.596h10.788v-14.384h3.596v17.98H1056.515z"/>
	<path fill="none" stroke="#0000FF" stroke-width="0.25" d="M1073.056,304.148v-25.172h3.597v10.788h3.596v3.596h-3.596v7.192
		h10.787v3.596H1073.056z M1080.248,289.765v-3.596h7.191v3.596H1080.248z M1087.439,300.552v-10.788h3.597v10.788H1087.439z"/>
	<path fill="none" stroke="#0000FF" stroke-width="0.25" d="M1093.193,304.148v-7.192h3.597v7.192H1093.193z"/>
	<path fill="none" stroke="#0000FF" stroke-width="0.25" d="M1098.947,300.552v-10.788h3.596v10.788H1098.947z M1102.543,289.765
		v-3.596h10.788v3.596H1102.543z M1102.543,304.148v-3.596h10.788v3.596H1102.543z M1113.331,293.36v-3.596h3.596v3.596H1113.331z
		 M1113.331,300.552v-3.596h3.596v3.596H1113.331z"/>
	<path fill="none" stroke="#0000FF" stroke-width="0.25" d="M1119.084,300.552v-10.788h3.597v10.788H1119.084z M1122.681,289.765
		v-3.596h10.787v3.596H1122.681z M1122.681,304.148v-3.596h10.787v3.596H1122.681z M1133.468,300.552v-10.788h3.597v10.788H1133.468
		z"/>
	<path fill="none" stroke="#0000FF" stroke-width="0.25" d="M1139.222,304.148v-17.98h7.192v3.596h-3.596v14.384H1139.222z
		 M1146.414,296.957v-7.192h3.596v7.192H1146.414z M1150.01,289.765v-3.596h3.596v3.596H1150.01z M1153.605,304.148v-14.384h3.597
		v14.384H1153.605z"/>
	<path fill="none" stroke="#0000FF" stroke-width="0.25" d="M1159.359,304.148v-3.596h3.596v3.596H1159.359z M1162.955,300.552
		v-7.192h3.596v7.192H1162.955z M1166.551,293.36v-3.596h3.597v3.596H1166.551z M1170.147,289.765v-7.192h3.596v7.192H1170.147z
		 M1173.743,282.573v-3.596h3.596v3.596H1173.743z"/>
	<path fill="none" stroke="#0000FF" stroke-width="0.25" d="M1179.496,300.552v-10.788h3.597v10.788H1179.496z M1183.093,289.765
		v-3.596h10.787v3.596H1183.093z M1183.093,304.148v-3.596h10.787v3.596H1183.093z M1193.88,293.36v-3.596h3.597v3.596H1193.88z
		 M1193.88,300.552v-3.596h3.597v3.596H1193.88z"/>
	<path fill="none" stroke="#0000FF" stroke-width="0.25" d="M1199.634,304.148v-25.172h3.597v10.788h3.596v3.596h-3.596v10.788
		H1199.634z M1206.826,289.765v-3.596h7.191v3.596H1206.826z M1214.018,304.148v-14.384h3.597v14.384H1214.018z"/>
	<path fill="none" stroke="#0000FF" stroke-width="0.25" d="M1219.771,300.552v-10.788h3.596v3.596h10.788v-3.596h3.596v7.192
		h-14.384v3.596H1219.771z M1223.367,289.765v-3.596h10.788v3.596H1223.367z M1223.367,304.148v-3.596h14.384v3.596H1223.367z"/>
	<path fill="none" stroke="#0000FF" stroke-width="0.25" d="M1239.908,300.552v-3.596h3.597v3.596H1239.908z M1243.505,289.765
		v-3.596h10.787v3.596H1243.505z M1243.505,304.148v-3.596h10.787v-3.596h-10.787v-3.596h10.787v-3.596h3.597v14.384H1243.505z"/>
	<path fill="none" stroke="#0000FF" stroke-width="0.25" d="M1260.046,307.745v-21.576h3.597v3.596h3.596v3.596h-3.596v3.596h10.787
		v3.596h-10.787v7.192H1260.046z M1267.238,289.765v-3.596h7.191v3.596H1267.238z M1274.43,296.957v-7.192h3.597v7.192H1274.43z"/>
	<path fill="none" stroke="#0000FF" stroke-width="0.25" d="M1280.184,304.148v-7.192h3.596v7.192H1280.184z M1283.779,307.745
		v-3.596h10.788v3.596H1283.779z M1294.567,282.573v-3.596h3.596v3.596H1294.567z M1294.567,304.148v-17.98h3.596v17.98H1294.567z"
		/>
	<path fill="none" stroke="#0000FF" stroke-width="0.25" d="M1300.32,300.552v-3.596h3.597v3.596H1300.32z M1303.917,289.765v-3.596
		h10.787v3.596H1303.917z M1303.917,304.148v-3.596h10.787v-3.596h-10.787v-3.596h10.787v-3.596h3.597v14.384H1303.917z"/>
	<path fill="none" stroke="#0000FF" stroke-width="0.25" d="M1320.458,300.552v-10.788h3.597v10.788H1320.458z M1324.055,289.765
		v-3.596h10.787v3.596H1324.055z M1324.055,304.148v-3.596h10.787v3.596H1324.055z M1334.842,293.36v-3.596h3.597v3.596H1334.842z
		 M1334.842,300.552v-3.596h3.597v3.596H1334.842z"/>
	<path fill="none" stroke="#0000FF" stroke-width="0.25" d="M1340.596,304.148v-25.172h3.596v14.384h3.596v3.596h-3.596v7.192
		H1340.596z M1347.787,293.36v-3.596h3.597v3.596H1347.787z M1347.787,300.552v-3.596h3.597v3.596H1347.787z M1351.384,289.765
		v-3.596h3.596v3.596H1351.384z M1351.384,304.148v-3.596h3.596v3.596H1351.384z"/>
	<path fill="none" stroke="#0000FF" stroke-width="0.25" d="M1357.137,304.148v-3.596h3.597v3.596H1357.137z M1360.733,300.552
		v-7.192h3.596v7.192H1360.733z M1364.329,293.36v-3.596h3.596v3.596H1364.329z M1367.925,289.765v-7.192h3.596v7.192H1367.925z
		 M1371.521,282.573v-3.596h3.597v3.596H1371.521z"/>
	<path fill="none" stroke="#0000FF" stroke-width="0.25" d="M1377.274,304.148v-25.172h14.384v3.596h-10.788v3.596h10.788v3.596
		h-10.788v14.384H1377.274z M1391.658,286.168v-3.596h3.596v3.596H1391.658z M1391.658,304.148v-14.384h3.596v14.384H1391.658z"/>
	<path fill="none" stroke="#0000FF" stroke-width="0.25" d="M1397.411,304.148v-25.172h17.98v3.596h-14.384v3.596h7.191v3.596
		h-7.191v14.384H1397.411z"/>
	<path fill="none" stroke="#0000FF" stroke-width="0.25" d="M1417.55,293.36v-3.596h17.979v3.596H1417.55z"/>
	<path fill="none" stroke="#0000FF" stroke-width="0.25" d="M1437.687,304.148v-25.172h14.384v3.596h-10.788v3.596h10.788v3.596
		h-10.788v14.384H1437.687z M1452.07,286.168v-3.596h3.597v3.596H1452.07z M1452.07,304.148v-14.384h3.597v14.384H1452.07z"/>
	<path fill="none" stroke="#0000FF" stroke-width="0.25" d="M1457.823,300.552v-3.596h3.597v3.596H1457.823z M1461.42,289.765
		v-3.596h10.788v3.596H1461.42z M1461.42,304.148v-3.596h10.788v-3.596h-10.788v-3.596h10.788v-3.596h3.596v14.384H1461.42z"/>
	<path fill="none" stroke="#0000FF" stroke-width="0.25" d="M1477.962,282.573v-3.596h3.596v3.596H1477.962z M1477.962,304.148
		v-17.98h3.596v17.98H1477.962z"/>
	<path fill="none" stroke="#0000FF" stroke-width="0.25" d="M1483.715,300.552v-21.576h3.597v21.576H1483.715z M1487.312,304.148
		v-3.596h3.596v3.596H1487.312z"/>
	<path fill="none" stroke="#0000FF" stroke-width="0.25" d="M1493.063,293.36v-3.596h17.98v3.596H1493.063z"/>
	<path fill="none" stroke="#0000FF" stroke-width="0.25" d="M1513.202,300.552v-17.979h3.596v17.979H1513.202z M1516.798,282.573
		v-3.596h10.787v3.596H1516.798z M1516.798,304.148v-3.596h10.787v3.596H1516.798z M1527.585,286.168v-3.596h3.597v3.596H1527.585z
		 M1527.585,300.552v-3.596h3.597v3.596H1527.585z"/>
	<path fill="none" stroke="#0000FF" stroke-width="0.25" d="M1533.339,304.148v-17.98h3.596v3.596h3.596v3.596h-3.596v10.788
		H1533.339z M1540.53,289.765v-3.596h7.192v3.596H1540.53z M1547.723,293.36v-3.596h3.597v3.596H1547.723z"/>
	<path fill="none" stroke="#0000FF" stroke-width="0.25" d="M1553.476,300.552v-3.596h3.597v3.596H1553.476z M1557.072,289.765
		v-3.596h10.788v3.596H1557.072z M1557.072,304.148v-3.596h10.788v-3.596h-10.788v-3.596h10.788v-3.596h3.596v14.384H1557.072z"/>
	<path fill="none" stroke="#0000FF" stroke-width="0.25" d="M1577.21,304.148v-14.384h-3.596v-3.596h3.596v-3.596h3.596v3.596h7.191
		v3.596h-7.191v14.384H1577.21z M1580.806,282.573v-3.596h7.191v3.596H1580.806z"/>
	<path fill="none" stroke="#0000FF" stroke-width="0.25" d="M1593.751,300.552v-10.788h-3.596v-3.596h3.596v-7.192h3.596v7.192
		h3.596v3.596h-3.596v10.788H1593.751z M1597.347,304.148v-3.596h3.596v3.596H1597.347z"/>
	<polygon fill="none" stroke="#00FF00" stroke-width="0.25" points="1083.702,833.564 1083.702,784.577 1126.612,759.905 
		1168.088,784.577 1168.088,833.564 1125.895,858.951 	"/>
	<path fill="none" stroke="#0000FF" stroke-width="0.25" d="M1105.976,874.857c0,0.164-0.008,0.304-0.021,0.416
		c-0.015,0.112-0.04,0.202-0.072,0.268c-0.032,0.066-0.069,0.115-0.111,0.148c-0.042,0.032-0.089,0.049-0.143,0.049h-3.775v2.865
		h3.543c0.054,0,0.102,0.014,0.143,0.041c0.042,0.027,0.08,0.074,0.112,0.14c0.032,0.066,0.056,0.154,0.071,0.264
		c0.015,0.11,0.022,0.246,0.022,0.412c0,0.164-0.008,0.301-0.022,0.411c-0.016,0.109-0.039,0.2-0.071,0.271s-0.07,0.123-0.112,0.152
		c-0.041,0.03-0.089,0.046-0.143,0.046h-3.543v3.968c0,0.061-0.017,0.112-0.053,0.157c-0.037,0.042-0.101,0.08-0.192,0.109
		c-0.092,0.031-0.213,0.055-0.361,0.071c-0.149,0.016-0.339,0.024-0.571,0.024c-0.226,0-0.415-0.009-0.566-0.024
		c-0.152-0.017-0.272-0.04-0.361-0.071c-0.09-0.029-0.153-0.067-0.192-0.109c-0.039-0.045-0.058-0.097-0.058-0.157v-9.656
		c0-0.242,0.067-0.416,0.2-0.522c0.134-0.108,0.299-0.161,0.496-0.161h5.435c0.054,0,0.101,0.016,0.143,0.045
		c0.042,0.03,0.079,0.079,0.111,0.148c0.032,0.068,0.058,0.16,0.072,0.275C1105.968,874.553,1105.976,874.693,1105.976,874.857z"/>
	<path fill="none" stroke="#0000FF" stroke-width="0.25" d="M1122.89,883.814c0.071,0.197,0.116,0.354,0.134,0.47
		c0.018,0.114-0.006,0.202-0.071,0.26c-0.064,0.057-0.182,0.093-0.349,0.106c-0.166,0.013-0.396,0.021-0.687,0.021
		c-0.303,0-0.539-0.004-0.709-0.013c-0.17-0.008-0.299-0.024-0.389-0.049c-0.089-0.025-0.151-0.059-0.188-0.104
		c-0.035-0.043-0.065-0.102-0.089-0.173l-0.777-2.141h-4.336l-0.732,2.083c-0.023,0.076-0.055,0.142-0.094,0.193
		c-0.038,0.053-0.102,0.094-0.188,0.123c-0.086,0.031-0.209,0.052-0.365,0.062c-0.158,0.011-0.364,0.017-0.62,0.017
		c-0.274,0-0.488-0.009-0.643-0.024c-0.155-0.017-0.263-0.057-0.321-0.119c-0.061-0.063-0.081-0.153-0.062-0.268
		c0.018-0.115,0.062-0.27,0.134-0.463l3.561-9.449c0.036-0.094,0.077-0.169,0.124-0.227c0.049-0.059,0.124-0.102,0.228-0.132
		c0.104-0.03,0.249-0.05,0.434-0.059c0.185-0.008,0.428-0.012,0.731-0.012c0.351,0,0.631,0.004,0.84,0.012
		c0.207,0.009,0.369,0.028,0.485,0.059c0.117,0.03,0.199,0.075,0.25,0.136s0.094,0.143,0.13,0.247L1122.89,883.814z
		 M1117.589,876.002h-0.009l-1.634,4.528h3.275L1117.589,876.002z"/>
	<path fill="none" stroke="#0000FF" stroke-width="0.25" d="M1138.856,883.008c0,0.138-0.004,0.254-0.013,0.35
		c-0.009,0.097-0.022,0.179-0.04,0.248c-0.019,0.068-0.042,0.127-0.071,0.176c-0.03,0.05-0.077,0.105-0.144,0.169
		c-0.065,0.063-0.191,0.144-0.379,0.243c-0.187,0.099-0.416,0.193-0.687,0.283c-0.271,0.092-0.58,0.167-0.929,0.228
		c-0.348,0.06-0.725,0.09-1.128,0.09c-0.792,0-1.507-0.112-2.143-0.337c-0.637-0.225-1.178-0.562-1.624-1.009
		c-0.446-0.446-0.789-1.006-1.026-1.675c-0.238-0.67-0.357-1.449-0.357-2.339c0-0.905,0.132-1.709,0.393-2.412
		c0.263-0.702,0.627-1.293,1.099-1.771c0.47-0.477,1.033-0.839,1.69-1.087c0.657-0.246,1.382-0.369,2.174-0.369
		c0.321,0,0.63,0.024,0.928,0.073c0.297,0.05,0.572,0.115,0.825,0.193c0.253,0.08,0.48,0.172,0.683,0.276
		c0.203,0.104,0.344,0.193,0.424,0.268s0.136,0.136,0.165,0.185c0.03,0.05,0.054,0.113,0.071,0.19s0.031,0.167,0.04,0.271
		c0.009,0.105,0.014,0.233,0.014,0.388c0,0.164-0.006,0.305-0.018,0.42s-0.033,0.208-0.062,0.279
		c-0.029,0.072-0.065,0.124-0.107,0.156c-0.041,0.034-0.089,0.051-0.143,0.051c-0.089,0-0.202-0.049-0.339-0.145
		s-0.313-0.204-0.531-0.321c-0.217-0.118-0.476-0.226-0.776-0.321c-0.3-0.096-0.659-0.144-1.075-0.144
		c-0.458,0-0.867,0.086-1.227,0.259c-0.36,0.173-0.667,0.421-0.92,0.741c-0.253,0.321-0.444,0.71-0.575,1.165
		s-0.196,0.969-0.196,1.54c0,0.625,0.069,1.167,0.209,1.625c0.141,0.458,0.339,0.835,0.599,1.132
		c0.259,0.297,0.571,0.519,0.937,0.663c0.366,0.146,0.777,0.218,1.236,0.218c0.416,0,0.776-0.045,1.08-0.135
		c0.303-0.092,0.563-0.191,0.781-0.301c0.216-0.11,0.395-0.209,0.535-0.297c0.14-0.087,0.248-0.132,0.325-0.132
		c0.06,0,0.106,0.011,0.143,0.033s0.065,0.065,0.089,0.132c0.023,0.065,0.042,0.157,0.054,0.275
		C1138.852,882.652,1138.856,882.811,1138.856,883.008z"/>
	<path fill="none" stroke="#0000FF" stroke-width="0.25" d="M1154.896,874.857c0,0.159-0.008,0.296-0.022,0.407
		c-0.015,0.113-0.037,0.203-0.067,0.272c-0.029,0.069-0.067,0.119-0.11,0.152c-0.045,0.032-0.095,0.049-0.147,0.049h-2.893v8.587
		c0,0.055-0.019,0.104-0.058,0.148c-0.038,0.044-0.103,0.079-0.191,0.106s-0.21,0.05-0.361,0.066
		c-0.152,0.016-0.341,0.024-0.567,0.024c-0.226,0-0.415-0.009-0.566-0.024c-0.151-0.017-0.271-0.039-0.36-0.066
		c-0.09-0.027-0.154-0.062-0.192-0.106c-0.039-0.045-0.058-0.094-0.058-0.148v-8.587h-2.892c-0.061,0-0.11-0.017-0.152-0.049
		c-0.041-0.033-0.077-0.083-0.106-0.152c-0.03-0.069-0.053-0.159-0.067-0.272c-0.015-0.111-0.022-0.248-0.022-0.407
		c0-0.164,0.008-0.305,0.022-0.42s0.037-0.207,0.067-0.275c0.029-0.069,0.065-0.118,0.106-0.148
		c0.042-0.029,0.092-0.045,0.152-0.045h8.139c0.053,0,0.103,0.016,0.147,0.045c0.043,0.03,0.081,0.079,0.11,0.148
		c0.03,0.068,0.053,0.16,0.067,0.275S1154.896,874.693,1154.896,874.857z"/>
	<path fill="none" stroke="#0000FF" stroke-width="0.25" d="M1398.991,798.429c0-0.418-0.21-1.046-0.629-1.256l-12.353-7.118
		c-0.42-0.21-1.047-0.21-1.466,0l-12.353,7.118c-0.419,0.21-0.628,0.838-0.628,1.256v14.028c0,0.419,0.209,1.047,0.628,1.257
		l12.353,7.118c0.419,0.209,1.046,0.209,1.466,0l12.353-7.118c0.419-0.21,0.629-0.838,0.629-1.257V798.429z M1385.382,814.76
		c-5.024,0-9.212-4.188-9.212-9.212s4.188-9.212,9.212-9.212c5.025,0,9.212,4.188,9.212,9.212S1390.407,814.76,1385.382,814.76z"/>
	<path fill="none" stroke="#0000FF" stroke-width="0.25" d="M1243.849,783.773c0,0.419-0.209,0.628-0.628,0.628h-1.466
		c-0.419,0-0.628-0.209-0.628-0.628c-0.209-7.327-0.419-14.237-0.837-20.728h-0.21c-1.885,5.234-3.978,11.725-5.862,16.331
		c-0.419,1.047-0.838,1.256-1.885,1.256h-1.046c-0.838,0-1.257-0.209-1.676-1.256c-1.884-4.606-4.188-11.097-5.862-16.331h-0.209
		c-0.628,6.49-0.838,13.4-1.047,20.728c0,0.419-0.21,0.628-0.628,0.628h-1.257c-0.418,0-0.628-0.209-0.628-0.628
		c0.21-7.327,0.628-15.074,1.256-22.402c0-0.837,0.419-1.047,1.257-1.047h1.466c1.047,0,1.256,0,1.675,1.256
		c1.884,5.025,4.188,11.726,6.071,16.75h0.21c1.884-5.024,4.396-11.725,6.071-16.75c0.419-1.046,0.628-1.256,1.675-1.256h1.466
		c0.837,0,1.256,0.21,1.256,1.047C1243.011,768.489,1243.43,776.236,1243.849,783.773z"/>
	<path fill="none" stroke="#0000FF" stroke-width="0.25" d="M1264.995,776.446c0,2.721-0.628,4.814-2.094,6.28
		c-1.257,1.256-3.35,1.885-6.281,1.885c-2.931,0-5.025-0.629-6.281-1.885c-1.465-1.466-2.094-3.35-2.094-6.28v-15.494
		c0-0.418,0.21-0.628,0.629-0.628h1.256c0.419,0,0.628,0.21,0.628,0.628v15.494c0,2.093,0.419,3.559,1.256,4.605
		c0.838,1.047,2.304,1.675,4.396,1.675c2.095,0,3.56-0.628,4.397-1.675c0.837-1.047,1.256-2.513,1.256-4.605v-15.494
		c0-0.418,0.209-0.628,0.628-0.628h1.466c0.419,0,0.628,0.21,0.628,0.628v15.494H1264.995z"/>
	<path fill="none" stroke="#0000FF" stroke-width="0.25" d="M1269.183,783.564c-0.419-0.209-0.419-0.209-0.419-0.629l0.209-1.256
		c0-0.419,0.42-0.419,0.838-0.21c1.256,0.629,3.35,1.257,5.443,1.257c3.56,0,5.234-1.675,5.234-4.605v-0.419
		c0-2.722-0.837-3.56-3.978-4.396l-2.304-0.628c-3.559-0.838-5.234-2.723-5.234-6.072v-0.629c0-3.978,2.723-6.071,7.119-6.071
		c2.094,0,3.978,0.21,5.234,0.629c0.418,0.209,0.628,0.418,0.418,0.837l-0.209,1.047c-0.209,0.419-0.419,0.419-0.838,0.419
		c-1.674-0.419-2.722-0.629-4.605-0.629c-3.141,0-4.606,1.466-4.606,4.188l0,0c0,2.723,1.466,3.351,3.979,3.979l2.303,0.628
		c4.187,1.047,5.443,2.513,5.443,6.281v0.628c0,4.606-2.722,6.91-7.746,6.91C1272.951,784.611,1271.066,784.192,1269.183,783.564z"
		/>
	<path fill="none" stroke="#0000FF" stroke-width="0.25" d="M1291.375,784.401c-1.466,0-2.512-0.209-3.14-0.837
		c-0.628-0.629-1.047-1.466-1.257-2.932c-0.21-2.303-0.21-4.815-0.21-7.327v-2.095c0-1.884,0-5.234,0.21-7.327
		c0.21-1.466,0.419-2.304,1.257-2.932c0.837-0.628,1.674-0.837,3.14-0.837h8.584c0.419,0,0.629,0.209,0.629,0.628v1.047
		c0,0.418-0.21,0.628-0.629,0.628h-8.374c-0.838,0-1.257,0.209-1.466,0.419c-0.21,0.209-0.419,0.837-0.419,1.465
		c-0.209,1.885-0.209,3.561-0.209,6.491h8.794c0.418,0,0.628,0.209,0.628,0.628v1.047c0,0.418-0.21,0.628-0.628,0.628h-8.794
		c0,3.351,0,5.443,0.209,7.328c0,0.837,0.209,1.256,0.419,1.466c0.209,0.209,0.838,0.419,1.466,0.419h8.374
		c0.419,0,0.629,0.209,0.629,0.627v1.047c0,0.419-0.21,0.629-0.629,0.629h-8.584V784.401z"/>
	<path fill="none" stroke="#0000FF" stroke-width="0.25" d="M1321.315,776.446c0,2.721-0.629,4.814-2.094,6.28
		c-1.256,1.256-3.351,1.885-6.281,1.885c-2.932,0-5.024-0.629-6.281-1.885c-1.466-1.466-2.094-3.35-2.094-6.28v-15.494
		c0-0.418,0.209-0.628,0.628-0.628h1.466c0.419,0,0.628,0.21,0.628,0.628v15.494c0,2.093,0.419,3.559,1.257,4.605
		c0.837,1.047,2.303,1.675,4.396,1.675s3.56-0.628,4.396-1.675c0.838-1.047,1.257-2.513,1.257-4.605v-15.494
		c0-0.418,0.209-0.628,0.628-0.628h1.465c0.419,0,0.629,0.21,0.629,0.628V776.446L1321.315,776.446z"/>
	<path fill="none" stroke="#0000FF" stroke-width="0.25" d="M1349.58,783.773c0,0.419-0.21,0.628-0.628,0.628h-1.466
		c-0.419,0-0.628-0.209-0.628-0.628c-0.21-7.327-0.419-14.237-0.838-20.728h-0.209c-1.885,5.234-3.979,11.725-5.863,16.331
		c-0.418,1.047-0.837,1.256-1.884,1.256h-1.047c-0.837,0-1.256-0.209-1.675-1.256c-1.885-4.606-4.188-11.097-5.862-16.331h-0.21
		c-0.418,6.49-0.628,13.4-0.837,20.728c0,0.419-0.209,0.628-0.628,0.628h-1.466c-0.419,0-0.628-0.209-0.628-0.628
		c0.209-7.327,0.628-15.074,1.256-22.402c0-0.837,0.419-1.047,1.257-1.047h1.465c1.047,0,1.257,0,1.676,1.256
		c1.884,5.025,4.187,11.726,6.071,16.75h0.209c1.885-5.024,4.397-11.725,6.071-16.75c0.419-1.046,0.629-1.256,1.676-1.256h1.466
		c0.837,0,1.256,0.21,1.256,1.047C1348.742,768.489,1349.37,776.236,1349.58,783.773z"/>
	<path fill="none" stroke="#0000FF" stroke-width="0.25" d="M1379.52,773.306c0,4.188-0.629,7.118-2.303,9.003
		c-1.466,1.465-3.56,2.303-6.49,2.303c-2.932,0-5.025-0.838-6.282-2.094c-1.884-1.885-2.512-5.024-2.512-9.212v-1.885
		c0-4.188,0.628-7.328,2.303-9.213c1.466-1.465,3.56-2.303,6.491-2.303c2.931,0,5.024,0.838,6.49,2.303
		c1.674,1.885,2.303,5.025,2.303,9.213V773.306z M1364.444,772.886c0,3.561,0.21,6.491,1.676,8.166
		c0.837,1.047,2.303,1.675,4.396,1.675c2.303,0,3.769-0.628,4.605-1.884c1.257-1.676,1.466-4.606,1.466-7.957v-1.046
		c0-3.141-0.209-6.072-1.466-7.956c-0.837-1.257-2.303-1.885-4.605-1.885s-3.769,0.628-4.606,1.885
		c-1.256,1.674-1.466,4.605-1.466,7.956V772.886L1364.444,772.886z"/>
	<path fill="none" stroke="#0000FF" stroke-width="0.25" d="M1388.731,762.418c-0.838,0-1.465,0.209-1.675,0.419
		c-0.21,0.209-0.419,0.837-0.419,1.674v6.491h7.746c0.42,0,0.63,0.209,0.63,0.628v1.048c0,0.418-0.21,0.628-0.63,0.628h-7.746
		v10.887c0,0.419-0.208,0.629-0.418,0.629h-1.467c-0.418,0-0.418-0.21-0.418-0.629v-20.1c0-1.256,0.418-2.303,1.047-2.932
		c0.628-0.627,1.675-0.837,3.14-0.837h6.909c0.21,0,0.63,0,0.63,0.419v1.047c0,0.418-0.21,0.418-0.63,0.418h-6.699V762.418z"/>
	<g>
		<path fill="none" stroke="#0000FF" stroke-width="0.25" d="M1386.638,804.083h4.815c0.419,0,0.629,0.209,0.629,0.627v1.466
			c0,0.628-0.42,0.628-0.629,0.628h-4.815v4.816c0,0.418-0.208,0.628-0.628,0.628h-1.466c-0.628,0-0.628-0.419-0.628-0.628v-4.816
			h-4.815c-0.418,0-0.628-0.209-0.628-0.628v-1.466c0-0.418,0.21-0.627,0.628-0.627h4.815v-4.815c0-0.419,0.21-0.629,0.628-0.629
			h1.466c0.419,0,0.628,0.21,0.628,0.629V804.083z"/>
	</g>
	<path fill="none" stroke="#0000FF" stroke-width="0.25" d="M1228.355,818.947c-2.304,0-5.653-0.418-7.537-1.047
		c-1.047-0.418-1.256-0.837-1.047-1.675l0.628-3.35c0.209-0.838,0.628-1.047,1.466-0.838c2.303,0.838,4.815,1.257,6.49,1.257h0.209
		c2.513,0,3.351-0.628,3.351-2.304v-0.419c0-1.674-0.838-2.093-3.141-2.513l-2.723-0.627c-4.815-0.838-6.071-3.35-6.071-7.119
		v-1.046c0-2.304,0.628-3.979,1.885-5.234c1.466-1.467,3.978-2.094,8.165-2.094h0.209c2.513,0,5.235,0.418,6.909,1.047
		c0.838,0.419,1.047,0.837,0.838,1.884l-1.047,2.932c-0.209,0.837-0.628,1.047-1.465,0.627c-1.885-0.627-3.56-0.837-5.444-0.837
		h-0.209c-2.723,0-3.56,0.629-3.56,2.094v0.419c0,1.256,0.628,1.675,2.722,2.094l3.141,0.628c4.815,0.838,6.49,2.303,6.49,7.328
		v1.047c0,5.443-2.722,7.955-9.631,7.955h-0.628V818.947z"/>
	<path fill="none" stroke="#0000FF" stroke-width="0.25" d="M1252.642,818.947c-3.978,0-6.699-0.837-8.374-2.722
		c-1.675-1.675-2.304-4.396-2.304-8.374v-5.025c0-3.978,0.629-6.49,2.304-8.165c1.675-1.885,4.396-2.722,8.374-2.722h0.21
		c2.722,0,5.862,0.628,7.956,1.884c0.628,0.419,0.837,0.629,0.418,1.466l-1.256,3.35c-0.209,0.419-0.418,0.629-0.628,0.629
		c-0.209,0-0.628,0-0.837-0.21c-1.675-0.837-3.56-1.466-5.444-1.466h-0.209c-1.885,0-2.931,0.419-3.56,1.466
		c-0.628,1.047-0.837,2.513-0.837,4.815v2.931c0,2.513,0.209,4.188,1.047,5.234c0.628,0.838,1.884,1.257,3.769,1.257h0.209
		c1.466,0,3.56-0.628,5.025-1.047c0.209,0,0.418-0.21,0.628-0.21c0.419,0,0.628,0.21,0.628,0.838l0.628,2.931
		c0,0.419,0.209,0.629,0.209,0.838c0,0.419-0.209,0.838-1.256,1.047c-1.885,0.628-4.605,1.256-6.909,1.256H1252.642z"/>
	<path fill="none" stroke="#0000FF" stroke-width="0.25" d="M1272.113,817.272c0,1.047-0.209,1.257-1.465,1.257h-3.979
		c-1.257,0-1.465-0.21-1.465-1.257v-23.659c0-1.047,0.208-1.256,1.465-1.256h3.979c1.256,0,1.465,0.209,1.465,1.256V817.272z"/>
	<path fill="none" stroke="#0000FF" stroke-width="0.25" d="M1283.001,807.852c0,1.674,0,3.35,0.209,4.605
		c0,0.628,0.419,0.628,0.838,0.628h8.584c1.256,0,1.466,0.21,1.466,1.256v2.932c0,1.047-0.21,1.257-1.466,1.257h-9.84
		c-3.979,0-5.863-0.838-6.072-4.188c-0.209-2.512-0.209-5.233-0.209-7.746v-2.512c0-1.676,0-4.397,0.209-6.491
		c0.418-4.187,2.094-5.234,6.281-5.234h9.631c1.256,0,1.256,0.209,1.256,1.256v3.142c0,1.047,0,1.256-1.256,1.256h-8.584
		c-0.629,0-1.047,0.21-1.047,0.838c0,0.837,0,2.512-0.209,3.978h8.583c1.048,0,1.257,0.21,1.257,1.257v2.931
		c0,0.838-0.209,1.046-1.257,1.046h-8.374V807.852z"/>
	<path fill="none" stroke="#0000FF" stroke-width="0.25" d="M1304.774,804.92L1304.774,804.92v12.353
		c0,1.047-0.418,1.466-1.465,1.466h-3.351c-1.046,0-1.465-0.209-1.465-1.466v-23.659c0-1.047,0.419-1.256,1.465-1.256h1.885
		c1.257,0,1.885,0.209,2.513,1.048l9.003,13.398l0,0v-12.98c0-1.047,0.419-1.466,1.465-1.466h3.351c1.047,0,1.465,0.209,1.465,1.466
		v23.449c0,1.047-0.418,1.257-1.465,1.257h-1.885c-1.256,0-1.884-0.21-2.512-1.047L1304.774,804.92z"/>
	<path fill="none" stroke="#0000FF" stroke-width="0.25" d="M1334.505,818.947c-3.978,0-6.699-0.837-8.374-2.722
		c-1.676-1.675-2.304-4.396-2.304-8.374v-5.025c0-3.978,0.628-6.49,2.304-8.165c1.675-1.885,4.396-2.722,8.374-2.722h0.21
		c2.722,0,5.862,0.628,7.956,1.884c0.628,0.419,0.837,0.629,0.418,1.466l-1.256,3.35c-0.209,0.419-0.419,0.629-0.628,0.629
		s-0.628,0-0.838-0.21c-1.675-0.837-3.559-1.466-5.443-1.466h-0.209c-1.885,0-2.932,0.419-3.56,1.466s-0.838,2.513-0.838,4.815
		v2.931c0,2.513,0.21,4.188,1.048,5.234c0.628,0.838,1.884,1.257,3.768,1.257h0.21c1.466,0,3.559-0.628,5.024-1.047
		c0.21,0,0.419-0.21,0.629-0.21c0.418,0,0.628,0.21,0.628,0.838l0.628,2.931c0,0.419,0.209,0.629,0.209,0.838
		c0,0.419-0.209,0.838-1.256,1.047c-1.885,0.628-4.606,1.256-6.909,1.256H1334.505z"/>
	<path fill="none" stroke="#0000FF" stroke-width="0.25" d="M1353.14,807.852c0,1.674,0,3.35,0.208,4.605
		c0,0.628,0.42,0.628,0.838,0.628h8.585c1.256,0,1.465,0.21,1.465,1.256v2.932c0,1.047-0.209,1.257-1.465,1.257h-9.841
		c-3.978,0-5.862-0.838-6.071-4.188c-0.21-2.512-0.21-5.233-0.21-7.746v-2.512c0-1.676,0-4.397,0.21-6.491
		c0.418-4.187,2.094-5.234,6.281-5.234h9.631c1.256,0,1.256,0.209,1.256,1.256v3.142c0,1.047,0,1.256-1.256,1.256h-8.585
		c-0.628,0-1.046,0.21-1.046,0.838c0,0.837,0,2.512-0.21,3.978h8.584c1.047,0,1.257,0.21,1.257,1.257v2.931
		c0,0.838-0.21,1.046-1.257,1.046h-8.374V807.852z"/>
	<path fill="none" stroke="#0000FF" stroke-width="0.25" d="M1227.518,851.609c0,1.047-0.209,1.256-1.466,1.256h-3.978
		c-1.256,0-1.466-0.209-1.466-1.256V827.95c0-1.047,0.21-1.256,1.466-1.256h3.978c1.257,0,1.466,0.209,1.466,1.256V851.609z"/>
	<path fill="none" stroke="#0000FF" stroke-width="0.25" d="M1238.824,839.257L1238.824,839.257v12.353
		c0,1.047-0.419,1.465-1.466,1.465h-3.35c-1.047,0-1.466-0.209-1.466-1.465V827.95c0-1.047,0.419-1.256,1.466-1.256h1.884
		c1.256,0,1.885,0.209,2.513,1.047l9.003,13.399l0,0v-12.98c0-1.047,0.418-1.466,1.466-1.466h3.35c1.047,0,1.466,0.209,1.466,1.466
		v23.449c0,1.047-0.419,1.256-1.466,1.256h-1.885c-1.256,0-1.884-0.209-2.513-1.047L1238.824,839.257z"/>
	<path fill="none" stroke="#0000FF" stroke-width="0.25" d="M1265.833,852.865c-2.095,0-4.607,0-5.653-0.209
		c-1.047-0.21-1.466-0.629-1.466-1.676v-21.983c0-1.675,0.419-1.884,1.884-2.094c1.675-0.209,3.77-0.209,6.282-0.209h0.627
		c4.815,0,7.957,0.837,10.05,2.932c1.885,1.884,2.932,4.815,2.932,9.002v2.303c0,4.606-0.837,7.119-2.932,9.213
		c-2.093,2.094-5.443,2.931-10.677,2.931h-1.047V852.865z M1265.413,832.976v13.399c0,0.628,0.21,0.837,0.628,0.837
		c0.629,0,1.466,0,1.885,0h0.21c1.675,0,2.721-0.418,3.56-1.256c1.047-1.047,1.465-2.931,1.465-5.653v-1.675
		c0-2.722-0.418-4.606-1.465-5.652c-0.839-0.838-2.095-1.047-3.77-1.047h-0.209c-0.419,0-1.256,0-1.676,0
		C1265.623,832.347,1265.413,832.347,1265.413,832.976z"/>
	<path fill="none" stroke="#0000FF" stroke-width="0.25" d="M1298.494,827.95c0-1.047,0.209-1.256,1.465-1.256h3.979
		c1.256,0,1.466,0.209,1.466,1.256v15.912c0,3.56-0.629,5.652-2.513,7.328c-1.675,1.466-4.188,2.303-7.956,2.303h-0.419
		c-3.769,0-6.28-0.837-7.956-2.303c-1.884-1.676-2.512-3.979-2.512-7.328V827.95c0-1.047,0.209-1.256,1.465-1.256h3.979
		c1.256,0,1.466,0.209,1.466,1.256v15.702c0,1.676,0.209,2.723,0.837,3.351c0.629,0.628,1.466,0.838,2.932,0.838h0.209
		c1.256,0,2.304-0.21,2.932-0.838s0.837-1.675,0.837-3.351V827.95H1298.494z"/>
	<path fill="none" stroke="#0000FF" stroke-width="0.25" d="M1317.756,853.283c-2.303,0-5.653-0.418-7.537-1.046
		c-1.047-0.419-1.257-0.838-1.047-1.676l0.628-3.35c0.209-0.837,0.628-1.047,1.466-0.837c2.303,0.837,4.815,1.256,6.49,1.256h0.21
		c2.512,0,3.35-0.628,3.35-2.303v-0.419c0-1.676-0.838-2.094-3.141-2.513l-2.722-0.628c-4.815-0.838-6.072-3.351-6.072-7.118v-1.048
		c0-2.303,0.628-3.977,1.885-5.233c1.466-1.466,3.978-2.095,8.165-2.095h-0.209c2.512,0,5.233,0.42,6.909,1.048
		c0.837,0.419,1.047,0.838,0.837,1.884l-0.628,2.932c-0.209,0.838-0.628,1.047-1.466,0.628c-1.884-0.628-3.559-0.837-5.443-0.837
		h-0.209c-2.722,0-3.56,0.628-3.56,2.093v0.42c0,1.256,0.628,1.674,2.722,2.093l3.141,0.628c4.815,0.838,6.49,2.304,6.49,7.328
		v1.047c0,5.443-2.722,7.956-9.631,7.956h-0.628V853.283z"/>
	<path fill="none" stroke="#0000FF" stroke-width="0.25" d="M1331.155,832.138c-1.047,0-1.256-0.209-1.256-1.256v-3.141
		c0-1.047,0.209-1.257,1.256-1.257h17.587c1.047,0,1.256,0.21,1.256,1.257v3.141c0,1.047-0.209,1.256-1.256,1.256h-5.234v19.472
		c0,1.047-0.209,1.256-1.465,1.256h-3.979c-1.256,0-1.466-0.209-1.466-1.256v-19.472H1331.155z"/>
	<path fill="none" stroke="#0000FF" stroke-width="0.25" d="M1359.839,851.609c0,1.047-0.21,1.256-1.466,1.256h-3.978
		c-1.256,0-1.466-0.209-1.466-1.256V828.16c0-1.047,0.418-1.466,1.466-1.676c1.465-0.21,3.978-0.21,6.699-0.21h0.838
		c4.188,0,6.909,0.629,8.794,2.305c1.256,1.256,1.884,2.931,1.884,5.442v0.838c0,2.722-0.628,4.606-1.675,5.862
		c-0.838,0.838-1.885,1.466-3.141,1.885l5.234,8.584c0.418,0.837,0.209,1.256-1.047,1.256h-3.979c-1.465,0-1.675-0.209-2.094-1.047
		l-3.978-7.747c-0.209-0.419-0.419-0.419-0.628-0.419h-1.257v8.376H1359.839z M1361.724,831.929c-0.419,0-0.838,0-1.048,0
		c-0.418,0-0.628,0.209-0.628,0.628v5.653h2.723c1.465,0,2.093-0.21,2.512-0.629s0.628-1.256,0.628-2.303v-0.628
		c0-1.048-0.209-1.675-0.628-2.094c-0.419-0.628-1.466-0.628-2.722-0.628H1361.724L1361.724,831.929z"/>
	<path fill="none" stroke="#0000FF" stroke-width="0.25" d="M1383.079,852.865c-1.047,0-1.257-0.209-1.257-1.256v-6.491
		c-2.303-4.605-5.443-11.516-6.909-17.168c-0.209-0.837,0-1.256,0.838-1.256h4.188c1.256,0,1.465,0,1.675,1.047
		c0.837,3.35,2.513,8.374,3.56,11.516h0.209c1.256-3.142,2.722-8.166,3.56-11.516c0.209-1.047,0.628-1.047,1.674-1.047h4.188
		c0.837,0,1.047,0.419,0.837,1.256c-1.675,5.652-4.605,12.562-6.909,17.168v6.491c0,1.047-0.21,1.256-1.256,1.256H1383.079z"/>
</g>
</svg>
